{"title":"Prince Of Persia 2010 DVDRip XviD AC3-LEGi0N","uid":5774752,"size":1470995032,"categoryP":"video","categoryS":"movies","magnet":"?xt=urn:btih:260cf7e2896779bf64eae2c95c80d6e80838a873&amp;dn=Prince+Of+Persia+2010+DVDRip+XviD+AC3-LEGi0N&amp;tr=udp%3A%2F%2Ftracker.openbittorrent.com%3A80&amp;tr=udp%3A%2F%2Fopen.demonii.com%3A1337&amp;tr=udp%3A%2F%2Ftracker.coppersurfer.tk%3A6969&amp;tr=udp%3A%2F%2Fexodus.desync.com%3A6969","seeders":0,"leechers":1,"uploader":"hiest","files":-1,"time":1282225921,"description":" \nAdopted from the streets of Nasaf by King Sharaman of Persia, young Dastan grows up amongst royalty and quickly earns his place as a mighty warrior and prince. As his brothers Garsiv and Tus plan battle strategies, a spy sends word that the Holy City of Alamut has been supplying weapons to enemies of Persia. Taking matters into his own hands, Tus orders an attack on the sacred city and upon its fall Dastan encounters the beautiful Princess Tamina. When King Sharaman dies under mysterious circumstances shortly after, and Dastan is accused of his murder, he flees with the princess on a harrowing mission to clear his name. Learning from Tamina the true motives behind Alamut's invasion, Dastan must embark on a perilous quest to stop an evil mastermind's plot for ultimate power with a mystical weapon that can control the very fabric of time. \n\n  &lt;a href=&quot;\nhttp://www.imdb.com/title/tt0473075/&quot; rel=&quot;nofollow&quot; target=&quot;_NEW&quot;&gt;\nhttp://www.imdb.com/title/tt0473075/&lt;/a&gt;\nDirector:Mike Newell\nGenre:Action | Adventure | Fantasy | Romance\nMOVIEmeter: Up 75% in popularity this week\n\n \nVideo\nID : 0\nFormat : MPEG-4 Visual\nFormat profile : Advanced Simple@L5\nFormat settings, BVOP : Yes\nFormat settings, QPel : No\nFormat settings, GMC : No warppoints\nFormat settings, Matrix : Default (H.263)\nMuxing mode : Packed bitstream\nCodec ID : XVID\nCodec ID/Hint : XviD\nDuration : 1h 51mn\nBit rate : 1 284 Kbps\nWidth : 720 pixels\nHeight : 304 pixels\nDisplay aspect ratio : 2.35:1\nFrame rate : 25.000 fps\nResolution : 8 bits\nColorimetry : 4:2:0\nScan type : Progressive\nBits/(Pixel*Frame) : 0.235\nStream size : 1 020 MiB (74%)\nWriting library : XviD 1.2.1 (UTC 2008-12-04)\n\nAudio\nID : 1\nFormat : AC-3\nFormat/Info : Audio Coding 3\nCodec ID : 2000\nDuration : 1h 51mn\nBit rate mode : Constant\nBit rate : 448 Kbps\nChannel(s) : 6 channels\nChannel positions : Front: L C R, Surround: L R, LFE\nSampling rate : 48.0 KHz\nStream size : 356 MiB (26%)\nAlignment : Split accross interleaves\nInterleave, duration : 40 ms (1.00 video frame)\nInterleave, preload duration : 500 ms\n\n\nScreenshots:\n &lt;a href=&quot;\nhttp://postimg.com/image/21000/20012.jpg&quot; rel=&quot;nofollow&quot; target=&quot;_NEW&quot;&gt;\nhttp://postimg.com/image/21000/20012.jpg&lt;/a&gt;\n &lt;a href=&quot;\nhttp://postimg.com/image/21000/20013.jpg&quot; rel=&quot;nofollow&quot; target=&quot;_NEW&quot;&gt;\nhttp://postimg.com/image/21000/20013.jpg&lt;/a&gt;\n\n &lt;a href=&quot;\nhttp://thepiratebay.se/user/hiest&quot; rel=&quot;nofollow&quot; target=&quot;_NEW&quot;&gt;\nhttp://thepiratebay.se/user/hiest&lt;/a&gt;\n","torrent":{"xt":"urn:btih:260cf7e2896779bf64eae2c95c80d6e80838a873","amp;dn":"Prince+Of+Persia+2010+DVDRip+XviD+AC3-LEGi0N","amp;tr":["udp%3A%2F%2Ftracker.openbittorrent.com%3A80","udp%3A%2F%2Fopen.demonii.com%3A1337","udp%3A%2F%2Ftracker.coppersurfer.tk%3A6969","udp%3A%2F%2Fexodus.desync.com%3A6969"],"infoHash":"260cf7e2896779bf64eae2c95c80d6e80838a873","infoHashBuffer":{"type":"Buffer","data":[38,12,247,226,137,103,121,191,100,234,226,201,92,128,214,232,8,56,168,115]},"announce":[],"urlList":[]}}